<?xml version="1.0" encoding="utf-8"?>
<!-- Generator: Adobe Illustrator 15.0.0, SVG Export Plug-In . SVG Version: 6.00 Build 0)  -->
<!DOCTYPE svg PUBLIC "-//W3C//DTD SVG 1.1//EN" "http://www.w3.org/Graphics/SVG/1.1/DTD/svg11.dtd">
<svg version="1.1" id="svg3037" xmlns:svg="http://www.w3.org/2000/svg"
	 xmlns="http://www.w3.org/2000/svg" xmlns:xlink="http://www.w3.org/1999/xlink" x="0px" y="0px" width="162px" height="162px"
	 viewBox="0 0 162 162" enable-background="new 0 0 162 162" xml:space="preserve">
<g>
	<path fill="#EDA624" d="M75.343,89.106h11.823c9.904,0,14.319,3.744,14.319,12.134c0,3.474,0,14.057-22.414,14.057
		c-10.348,0-20.086-1.672-28.956-4.971l-3.564-1.329v16.741l1.932,0.536c9.401,2.625,19.697,3.957,30.589,3.957
		c26.27,0,39.589-9.756,39.589-28.991c0-12.638-5.464-27.703-31.494-27.703H75.343c-13.143,0-14.83-6.487-14.83-12.134
		c0-6.314,2.183-14.704,21.064-14.704c10.827,0,21.034,1.679,30.34,4.989l3.53,1.256V36.242l-1.962-0.524
		c-9.817-2.62-20.556-3.945-31.908-3.945c-31.604,0-38.239,16.114-38.239,29.632C43.338,74.042,48.889,89.106,75.343,89.106z"/>
	<g>
		<g>
			<path fill="#2E2C74" d="M81.001,144.999c-35.291,0-63.999-28.711-63.999-63.999c0-35.291,28.708-63.999,63.999-63.999
				c35.286,0,63.997,28.708,63.997,63.999C144.998,116.288,116.287,144.999,81.001,144.999z M81.001,36.874
				c-24.332,0-44.126,19.794-44.126,44.126c0,24.331,19.794,44.123,44.126,44.123c24.328,0,44.122-19.792,44.122-44.123
				C125.123,56.668,105.329,36.874,81.001,36.874z"/>
		</g>
	</g>
</g>
</svg>
