<?xml version="1.0" encoding="utf-8"?>
<!-- Generator: Adobe Illustrator 15.0.0, SVG Export Plug-In . SVG Version: 6.00 Build 0)  -->
<!DOCTYPE svg PUBLIC "-//W3C//DTD SVG 1.1//EN" "http://www.w3.org/Graphics/SVG/1.1/DTD/svg11.dtd">
<svg version="1.1" id="svg3037" xmlns:svg="http://www.w3.org/2000/svg"
	 xmlns="http://www.w3.org/2000/svg" xmlns:xlink="http://www.w3.org/1999/xlink" x="0px" y="0px" width="162px" height="162px"
	 viewBox="0 0 162 162" enable-background="new 0 0 162 162" xml:space="preserve">
<g>
	<path fill="#2E2C74" d="M98.91,85.167c-0.945-1.834-2.23-3.307-3.857-4.449c-1.623-1.138-3.484-2.027-5.584-2.669
		c-2.098-0.632-4.297-1.19-6.598-1.68c-1.464-0.298-2.844-0.623-4.142-0.975c-1.304-0.355-2.454-0.816-3.455-1.401
		c-1.004-0.582-1.792-1.327-2.375-2.214c-0.586-0.894-0.874-2.031-0.874-3.411c0-2.385,0.884-4.175,2.658-5.36
		c1.771-1.19,4.298-1.79,7.573-1.79c2.279,0,4.707,0.254,7.293,0.755s5.287,1.308,8.102,2.413v-8.528
		c-2.111-0.895-4.629-1.624-7.553-2.197c-2.924-0.565-5.834-0.849-8.737-0.849c-2.897,0-5.501,0.343-7.815,1.029
		c-2.314,0.697-4.33,1.737-6.053,3.135c-1.716,1.392-3.08,3.153-4.081,5.277c-1.003,2.129-1.504,4.63-1.504,7.495
		c0,2.602,0.436,4.768,1.301,6.498c0.869,1.736,2.031,3.163,3.495,4.289c1.462,1.127,3.153,2.002,5.076,2.642
		c1.925,0.633,3.939,1.185,6.054,1.639c1.595,0.326,3.118,0.662,4.567,0.995c1.447,0.339,2.754,0.784,3.92,1.319
		c1.164,0.544,2.084,1.242,2.76,2.094c0.682,0.853,1.018,1.975,1.018,3.352c0,1.577-0.369,2.896-1.1,3.96
		c-0.729,1.07-1.697,1.92-2.902,2.54c-1.203,0.624-2.563,1.059-4.082,1.319c-1.517,0.261-3.058,0.389-4.631,0.389
		c-2.704,0-5.332-0.268-7.878-0.794c-2.548-0.528-5.158-1.374-7.84-2.542v8.405c1.896,1.063,4.272,1.879,7.131,2.461
		c2.858,0.58,5.759,0.876,8.71,0.876c3.386,0,6.5-0.343,9.344-1.019c2.84-0.674,5.254-1.712,7.252-3.102
		c1.99-1.396,3.523-3.161,4.607-5.306c1.084-2.138,1.625-4.671,1.625-7.589C100.336,89.327,99.859,86.992,98.91,85.167z"/>
	<g>
		<path fill="#922579" d="M121.586,77.684h23.506c-1.67-32.803-27.973-59.105-60.775-60.776v23.506
			C104.164,42.012,119.986,57.836,121.586,77.684z"/>
		<path fill="#9ACA3C" d="M77.684,40.413V16.907c-32.803,1.67-59.106,27.974-60.775,60.776h23.507
			C42.017,57.836,57.835,42.012,77.684,40.413z"/>
		<path fill="#EDA624" d="M121.586,84.316c-1.6,19.845-17.422,35.667-37.27,37.269v23.508c32.807-1.669,59.105-27.972,60.775-60.776
			H121.586z"/>
		<path fill="#2E2C74" d="M40.416,84.316H16.909c1.669,32.805,27.973,59.107,60.775,60.776v-23.508
			C57.835,119.983,42.017,104.161,40.416,84.316z"/>
	</g>
</g>
</svg>
