<?xml version="1.0" encoding="utf-8"?>
<!-- Generator: Adobe Illustrator 15.0.0, SVG Export Plug-In . SVG Version: 6.00 Build 0)  -->
<!DOCTYPE svg PUBLIC "-//W3C//DTD SVG 1.1//EN" "http://www.w3.org/Graphics/SVG/1.1/DTD/svg11.dtd">
<svg version="1.1"
	 id="svg3037" xmlns:sodipodi="http://sodipodi.sourceforge.net/DTD/sodipodi-0.dtd" xmlns:cc="http://creativecommons.org/ns#" xmlns:dc="http://purl.org/dc/elements/1.1/" xmlns:inkscape="http://www.inkscape.org/namespaces/inkscape" xmlns:rdf="http://www.w3.org/1999/02/22-rdf-syntax-ns#" xmlns:svg="http://www.w3.org/2000/svg" sodipodi:docname="fedora_logo_darkbackground.svg" inkscape:version="0.47 r22583"
	 xmlns="http://www.w3.org/2000/svg" xmlns:xlink="http://www.w3.org/1999/xlink" x="0px" y="0px" width="448.508px"
	 height="157.74px" viewBox="0 0 448.508 157.74" enable-background="new 0 0 448.508 157.74" xml:space="preserve">
<sodipodi:namedview  id="namedview58" inkscape:pageopacity="0" inkscape:window-width="1231" inkscape:window-height="527" inkscape:pageshadow="2" inkscape:cx="71.827998" inkscape:zoom="1.4104612" guidetolerance="10" objecttolerance="10" pagecolor="#ffffff" inkscape:cy="77.199584" gridtolerance="10" borderopacity="1" bordercolor="#666666" showgrid="false" inkscape:window-maximized="0" inkscape:current-layer="layer1" inkscape:window-y="25" inkscape:window-x="0">
	</sodipodi:namedview>
<defs>
	
	
		<inkscape:perspective  id="perspective62" inkscape:vp_z="448.50739 : 78.870003 : 1" sodipodi:type="inkscape:persp3d" inkscape:vp_y="0 : 1000 : 0" inkscape:vp_x="0 : 78.870003 : 1" inkscape:persp3d-origin="224.25369 : 52.580002 : 1">
		</inkscape:perspective>
</defs>
<g>
	<path fill="#FFFFFF" d="M158.002,90.747c0-0.643-0.183-1.172-0.546-1.588c-0.364-0.414-0.847-0.766-1.448-1.045
		c-0.604-0.283-1.295-0.523-2.074-0.73c-0.779-0.211-1.594-0.418-2.444-0.625c-1.079-0.291-2.121-0.629-3.116-1.012
		c-0.998-0.387-1.875-0.891-2.634-1.51c-0.759-0.625-1.36-1.408-1.808-2.355c-0.444-0.945-0.668-2.102-0.668-3.472
		c0-1.682,0.301-3.141,0.902-4.378c0.604-1.237,1.418-2.26,2.446-3.071c1.029-0.81,2.223-1.412,3.584-1.805
		c1.36-0.397,2.798-0.593,4.313-0.593c1.849,0,3.585,0.153,5.206,0.452c1.618,0.301,3.084,0.688,4.392,1.166v6.017
		c-0.685-0.232-1.405-0.441-2.165-0.64c-0.759-0.198-1.528-0.372-2.305-0.518c-0.778-0.145-1.554-0.261-2.322-0.357
		c-0.769-0.091-1.496-0.14-2.182-0.14c-0.873,0-1.609,0.084-2.213,0.251c-0.601,0.166-1.09,0.388-1.464,0.668
		c-0.374,0.281-0.644,0.606-0.811,0.969c-0.165,0.362-0.247,0.741-0.247,1.138c0,0.685,0.179,1.243,0.543,1.683
		c0.363,0.437,0.867,0.787,1.513,1.06c0.645,0.268,1.318,0.494,2.024,0.668c0.707,0.174,1.391,0.35,2.057,0.514
		c1.037,0.25,2.077,0.551,3.117,0.904c1.036,0.355,1.972,0.848,2.803,1.479c0.831,0.635,1.511,1.457,2.041,2.461
		c0.529,1.01,0.795,2.291,0.795,3.848c0,1.705-0.323,3.189-0.967,4.457c-0.645,1.268-1.541,2.322-2.694,3.162
		c-1.154,0.842-2.534,1.465-4.145,1.873c-1.608,0.402-3.381,0.604-5.312,0.604c-1.911,0-3.63-0.15-5.158-0.451
		c-1.526-0.301-2.788-0.678-3.785-1.137v-5.949c1.62,0.604,3.116,1.012,4.486,1.23c1.372,0.217,2.648,0.326,3.834,0.326
		c0.914,0,1.767-0.068,2.554-0.203c0.79-0.135,1.468-0.346,2.039-0.641c0.572-0.291,1.025-0.66,1.359-1.104
		C157.835,91.905,158.002,91.37,158.002,90.747z"/>
	<path fill="#FFFFFF" d="M190.055,99.471c-0.833,0.248-1.824,0.447-2.976,0.592c-1.154,0.146-2.228,0.217-3.225,0.217
		c-2.534,0-4.607-0.408-6.219-1.23c-1.608-0.816-2.745-1.998-3.41-3.537c-0.477-1.1-0.718-2.594-0.718-4.484V75.384h-5.639V69.31
		h5.639v-8.445h7.385v8.445h8.726v6.074h-8.726v14.679c0,1.162,0.178,2.023,0.531,2.586c0.622,0.955,1.859,1.434,3.708,1.434
		c0.852,0,1.699-0.068,2.537-0.205c0.843-0.135,1.637-0.307,2.386-0.514V99.471z"/>
	<path fill="#FFFFFF" d="M223.437,84.419c0,2.373-0.354,4.533-1.06,6.484c-0.708,1.955-1.72,3.623-3.039,5.018
		c-1.317,1.391-2.913,2.467-4.784,3.223c-1.869,0.76-3.956,1.137-6.263,1.137c-2.365,0-4.492-0.377-6.372-1.137
		c-1.879-0.756-3.474-1.832-4.782-3.223c-1.309-1.395-2.311-3.063-3.007-5.018c-0.694-1.951-1.043-4.111-1.043-6.484
		c0-2.365,0.353-4.523,1.06-6.478c0.706-1.95,1.719-3.626,3.038-5.016c1.318-1.391,2.912-2.467,4.783-3.228
		c1.869-0.757,3.958-1.135,6.263-1.135c2.367,0,4.492,0.378,6.373,1.135c1.878,0.761,3.472,1.837,4.78,3.228
		c1.309,1.39,2.313,3.065,3.009,5.016C223.089,79.895,223.437,82.053,223.437,84.419z M215.802,84.419
		c0-1.598-0.186-3.008-0.56-4.236c-0.374-1.221-0.896-2.25-1.56-3.084c-0.664-0.828-1.464-1.452-2.397-1.867
		c-0.937-0.416-1.954-0.625-3.054-0.625c-1.08,0-2.084,0.209-3.008,0.625c-0.924,0.415-1.719,1.039-2.384,1.867
		c-0.664,0.834-1.184,1.863-1.558,3.084c-0.374,1.229-0.561,2.639-0.561,4.236c0,1.602,0.187,3.016,0.561,4.24
		c0.374,1.227,0.898,2.25,1.574,3.07c0.675,0.82,1.474,1.441,2.398,1.867c0.925,0.428,1.937,0.641,3.037,0.641
		c1.103,0,2.109-0.213,3.023-0.641c0.913-0.426,1.703-1.047,2.367-1.867s1.186-1.844,1.56-3.07
		C215.616,87.434,215.802,86.02,215.802,84.419z"/>
	<path fill="#FFFFFF" d="M248.048,99.471c-0.828,0.248-1.82,0.447-2.973,0.592c-1.154,0.146-2.229,0.217-3.226,0.217
		c-2.534,0-4.607-0.408-6.217-1.23c-1.609-0.816-2.747-1.998-3.41-3.537c-0.479-1.1-0.718-2.594-0.718-4.484V75.384h-5.64V69.31
		h5.64v-8.445h7.384v8.445h8.726v6.074h-8.726v14.679c0,1.162,0.179,2.023,0.53,2.586c0.622,0.955,1.86,1.434,3.708,1.434
		c0.852,0,1.7-0.068,2.538-0.205c0.842-0.135,1.638-0.307,2.383-0.514V99.471z"/>
	<rect x="252.851" y="57.45" fill="#922579" width="7.756" height="8.009"/>
	<rect x="253.04" y="69.31" fill="#FFFFFF" width="7.384" height="30.193"/>
	<path fill="#FFFFFF" d="M273.442,73.516h0.125c0.437-0.623,0.987-1.233,1.649-1.839c0.666-0.602,1.422-1.132,2.277-1.587
		c0.849-0.461,1.79-0.829,2.819-1.108c1.027-0.281,2.122-0.419,3.287-0.419c1.1,0,2.164,0.124,3.193,0.375
		c1.027,0.246,1.966,0.638,2.819,1.166c0.852,0.53,1.604,1.216,2.26,2.058c0.653,0.84,1.168,1.845,1.542,3.006
		c0.208,0.644,0.349,1.346,0.419,2.105c0.073,0.758,0.111,1.632,0.111,2.63v19.6h-7.385V81.057c0-0.811-0.03-1.506-0.096-2.087
		c-0.06-0.58-0.176-1.091-0.341-1.529c-0.374-0.954-0.939-1.641-1.7-2.057c-0.756-0.413-1.677-0.622-2.757-0.622
		c-1.431,0-2.81,0.337-4.128,1.014c-1.32,0.675-2.487,1.656-3.507,2.943v20.784h-7.382V69.31h6.106L273.442,73.516z"/>
	<path fill="#FFFFFF" d="M298.873,53.605h7.385v27.951h0.155L317.91,69.31h9.126l-13.241,14.177l13.34,16.016h-8.943l-11.811-14.051
		h-0.123v14.051h-7.385V53.605z"/>
	<path fill="#FFFFFF" d="M346.844,96.294h-0.128c-0.414,0.434-0.911,0.885-1.491,1.338c-0.583,0.457-1.25,0.889-1.996,1.293
		c-0.748,0.408-1.577,0.734-2.493,0.982c-0.914,0.25-1.898,0.373-2.96,0.373c-1.434,0-2.774-0.223-4.02-0.67
		c-1.248-0.443-2.315-1.09-3.209-1.928c-0.895-0.844-1.595-1.861-2.104-3.055c-0.507-1.195-0.763-2.531-0.763-4.006
		c0-1.617,0.299-3.074,0.889-4.363c0.59-1.285,1.418-2.375,2.478-3.27c1.06-0.893,2.325-1.574,3.802-2.045
		c1.474-0.465,3.104-0.697,4.891-0.697c1.309,0,2.514,0.082,3.615,0.25c1.101,0.166,2.066,0.361,2.896,0.592v-1.217
		c0-0.703-0.115-1.384-0.359-2.04c-0.235-0.656-0.62-1.236-1.152-1.746c-0.527-0.509-1.218-0.914-2.071-1.215
		c-0.849-0.301-1.888-0.451-3.116-0.451c-1.493,0-2.99,0.166-4.486,0.5c-1.494,0.33-3.113,0.827-4.858,1.495v-5.763
		c1.514-0.669,3.126-1.176,4.828-1.531c1.705-0.354,3.49-0.539,5.358-0.559c2.202,0,4.13,0.27,5.779,0.813
		c1.654,0.534,3.036,1.28,4.147,2.226c1.107,0.942,1.941,2.062,2.491,3.349c0.553,1.287,0.826,2.689,0.826,4.206v11.373
		c0,1.996,0.018,3.709,0.063,5.141c0.043,1.436,0.08,2.711,0.123,3.834h-6.669L346.844,96.294z M346.249,86.634
		c-0.706-0.166-1.517-0.314-2.431-0.451c-0.911-0.135-1.838-0.203-2.771-0.203c-1.808,0-3.236,0.357-4.283,1.074
		c-1.053,0.717-1.574,1.814-1.574,3.289c0,0.686,0.12,1.283,0.358,1.791c0.238,0.51,0.563,0.932,0.967,1.264
		c0.404,0.33,0.879,0.582,1.416,0.748c0.54,0.162,1.112,0.246,1.715,0.246c0.746,0,1.454-0.098,2.119-0.295
		c0.665-0.195,1.275-0.447,1.838-0.748c0.56-0.299,1.064-0.639,1.509-1.012c0.449-0.375,0.826-0.738,1.138-1.094V86.634z"/>
	<g>
		<path fill="#FFFFFF" d="M396.785,60.307c-1.923-2.121-4.283-3.769-7.08-4.944c-2.8-1.172-5.985-1.759-9.556-1.759
			c-3.573,0-6.757,0.586-9.554,1.759c-2.797,1.175-5.159,2.823-7.08,4.944c-1.929,2.118-3.39,4.646-4.392,7.583
			c-1.004,2.938-1.504,6.169-1.504,9.692c0,3.526,0.5,6.758,1.504,9.694c1.002,2.936,2.463,5.467,4.392,7.584
			c1.921,2.119,4.283,3.766,7.08,4.943c2.797,1.174,5.98,1.76,9.554,1.76c3.57,0,6.756-0.586,9.556-1.76
			c2.797-1.178,5.157-2.824,7.08-4.943c1.924-2.117,3.388-4.648,4.389-7.584c1.005-2.936,1.504-6.168,1.504-9.694
			c0-3.523-0.499-6.754-1.504-9.692C400.173,64.953,398.709,62.425,396.785,60.307z M392.901,84.964
			c-0.693,2.105-1.649,3.857-2.872,5.248c-1.216,1.396-2.672,2.441-4.352,3.146c-1.682,0.703-3.525,1.051-5.528,1.051
			c-2.007,0-3.85-0.348-5.529-1.051c-1.682-0.705-3.133-1.75-4.354-3.146c-1.22-1.391-2.177-3.143-2.864-5.248
			c-0.69-2.111-1.04-4.568-1.04-7.381c0-2.808,0.35-5.269,1.04-7.379c0.688-2.105,1.645-3.863,2.864-5.266
			c1.221-1.405,2.672-2.453,4.354-3.145c1.68-0.69,3.522-1.037,5.529-1.037c2.003,0,3.847,0.347,5.528,1.037
			c1.68,0.692,3.136,1.74,4.352,3.145c1.223,1.403,2.179,3.161,2.872,5.266c0.688,2.11,1.034,4.571,1.034,7.379
			C393.935,80.395,393.589,82.852,392.901,84.964z"/>
		<path fill="#FFFFFF" d="M437.919,81.128c-0.809-1.555-1.897-2.816-3.281-3.787c-1.384-0.966-2.966-1.722-4.753-2.265
			c-1.788-0.541-3.656-1.018-5.616-1.435c-1.243-0.25-2.418-0.527-3.523-0.827c-1.109-0.298-2.083-0.697-2.935-1.191
			c-0.856-0.498-1.529-1.126-2.023-1.885c-0.495-0.759-0.743-1.729-0.743-2.9c0-2.029,0.753-3.551,2.26-4.564
			c1.509-1.012,3.658-1.519,6.447-1.519c1.936,0,4.005,0.212,6.204,0.642c2.199,0.423,4.494,1.11,6.895,2.053v-7.256
			c-1.801-0.759-3.942-1.382-6.43-1.865c-2.488-0.485-4.964-0.723-7.43-0.723s-4.683,0.29-6.651,0.875
			c-1.971,0.59-3.686,1.478-5.146,2.665c-1.464,1.187-2.624,2.684-3.476,4.492c-0.851,1.809-1.277,3.936-1.277,6.374
			c0,2.212,0.369,4.055,1.104,5.529c0.738,1.475,1.728,2.691,2.973,3.647c1.243,0.953,2.685,1.705,4.318,2.246
			c1.638,0.541,3.353,1.006,5.149,1.398c1.358,0.277,2.654,0.561,3.885,0.848c1.235,0.287,2.348,0.66,3.337,1.123
			c0.989,0.461,1.777,1.051,2.35,1.775c0.575,0.73,0.864,1.68,0.864,2.855c0,1.336-0.31,2.457-0.932,3.367
			c-0.625,0.91-1.446,1.631-2.471,2.162c-1.027,0.533-2.182,0.902-3.475,1.123c-1.291,0.219-2.602,0.324-3.939,0.324
			c-2.303,0-4.537-0.219-6.704-0.67c-2.164-0.451-4.387-1.172-6.669-2.158v7.146c1.615,0.902,3.634,1.6,6.066,2.096
			c2.431,0.492,4.901,0.74,7.412,0.74c2.88,0,5.528-0.287,7.943-0.863c2.421-0.574,4.479-1.459,6.169-2.643
			c1.697-1.186,3.006-2.689,3.925-4.51c0.919-1.818,1.381-3.973,1.381-6.461C439.127,84.669,438.727,82.682,437.919,81.128z"/>
	</g>
	<path fill="#FFFFFF" d="M81.39,82.528c-0.831-1.609-1.96-2.904-3.388-3.908c-1.427-0.999-3.061-1.778-4.902-2.342
		c-1.845-0.556-3.775-1.046-5.797-1.476c-1.284-0.263-2.497-0.549-3.637-0.854c-1.144-0.314-2.153-0.719-3.032-1.233
		c-0.882-0.51-1.574-1.165-2.087-1.943c-0.514-0.783-0.766-1.783-0.766-2.994c0-2.095,0.775-3.667,2.333-4.708
		c1.557-1.046,3.775-1.572,6.652-1.572c1.999,0,4.133,0.224,6.403,0.663c2.271,0.439,4.642,1.148,7.114,2.12v-7.49
		c-1.854-0.786-4.064-1.426-6.633-1.928c-2.567-0.497-5.124-0.746-7.672-0.746c-2.544,0-4.83,0.3-6.863,0.904
		c-2.031,0.61-3.803,1.524-5.315,2.75c-1.507,1.224-2.704,2.771-3.583,4.636c-0.882,1.869-1.321,4.064-1.321,6.581
		c0,2.284,0.382,4.187,1.142,5.705c0.764,1.526,1.783,2.778,3.069,3.768c1.283,0.989,2.769,1.758,4.458,2.319
		c1.69,0.557,3.459,1.041,5.316,1.439c1.4,0.287,2.737,0.58,4.009,0.875c1.272,0.297,2.42,0.688,3.444,1.156
		c1.021,0.479,1.83,1.092,2.423,1.84c0.598,0.75,0.894,1.734,0.894,2.943c0,1.385-0.323,2.543-0.964,3.477
		c-0.641,0.939-1.491,1.688-2.55,2.23c-1.058,0.549-2.251,0.93-3.585,1.16c-1.333,0.227-2.687,0.338-4.066,0.338
		c-2.375,0-4.683-0.234-6.918-0.695c-2.238-0.463-4.53-1.207-6.886-2.232v7.381c1.666,0.936,3.751,1.652,6.263,2.164
		c2.51,0.508,5.057,0.77,7.648,0.77c2.974,0,5.709-0.305,8.204-0.896c2.497-0.592,4.616-1.504,6.368-2.725
		c1.748-1.225,3.097-2.775,4.048-4.658c0.952-1.877,1.425-4.102,1.425-6.666C82.639,86.18,82.223,84.13,81.39,82.528z"/>
	<g>
		<path fill="#922579" d="M101.301,75.955h20.642c-1.465-28.803-24.563-51.899-53.369-53.367v20.641
			C86.003,44.633,99.896,58.529,101.301,75.955z"/>
		<path fill="#9ACA3C" d="M62.75,43.229V22.588C33.944,24.053,10.847,47.152,9.381,75.955h20.644
			C31.429,58.529,45.32,44.633,62.75,43.229z"/>
		<path fill="#EDA624" d="M101.301,81.782c-1.404,17.428-15.298,31.322-32.728,32.727v20.643
			c28.81-1.465,51.904-24.563,53.369-53.369H101.301z"/>
		<path fill="#2E2C74" d="M30.024,81.782H9.381c1.467,28.807,24.563,51.904,53.369,53.369v-20.643
			C45.32,113.104,31.429,99.21,30.024,81.782z"/>
	</g>
</g>
</svg>
