<?xml version="1.0" encoding="utf-8"?>
<!-- Generator: Adobe Illustrator 15.0.0, SVG Export Plug-In . SVG Version: 6.00 Build 0)  -->
<!DOCTYPE svg PUBLIC "-//W3C//DTD SVG 1.1//EN" "http://www.w3.org/Graphics/SVG/1.1/DTD/svg11.dtd">
<svg version="1.1"
	 id="svg3037" xmlns:rdf="http://www.w3.org/1999/02/22-rdf-syntax-ns#" xmlns:sodipodi="http://sodipodi.sourceforge.net/DTD/sodipodi-0.dtd" xmlns:inkscape="http://www.inkscape.org/namespaces/inkscape" xmlns:cc="http://creativecommons.org/ns#" xmlns:svg="http://www.w3.org/2000/svg" xmlns:dc="http://purl.org/dc/elements/1.1/" inkscape:version="0.47 r22583" sodipodi:docname="fedora_logo_darkbackground.svg"
	 xmlns="http://www.w3.org/2000/svg" xmlns:xlink="http://www.w3.org/1999/xlink" x="0px" y="0px" width="448.508px"
	 height="157.74px" viewBox="0 0 448.508 157.74" enable-background="new 0 0 448.508 157.74" xml:space="preserve">
<sodipodi:namedview  id="namedview58" gridtolerance="10" guidetolerance="10" inkscape:cy="77.199584" bordercolor="#666666" borderopacity="1" pagecolor="#ffffff" showgrid="false" objecttolerance="10" inkscape:cx="71.827998" inkscape:zoom="1.4104612" inkscape:window-x="0" inkscape:window-y="25" inkscape:current-layer="layer1" inkscape:window-height="527" inkscape:pageshadow="2" inkscape:window-width="1231" inkscape:pageopacity="0" inkscape:window-maximized="0">
	</sodipodi:namedview>
<defs>
	
	
		<inkscape:perspective  id="perspective62" sodipodi:type="inkscape:persp3d" inkscape:vp_z="448.50739 : 78.870003 : 1" inkscape:vp_x="0 : 78.870003 : 1" inkscape:vp_y="0 : 1000 : 0" inkscape:persp3d-origin="224.25369 : 52.580002 : 1">
		</inkscape:perspective>
</defs>
<g>
	<path fill="#FFFFFF" d="M143.4,75.082h-5.522c-4.628,0-6.69-1.75-6.69-5.668c0-1.625,0-6.569,10.475-6.569
		c4.834,0,9.385,0.781,13.526,2.323l1.666,0.62v-7.82l-0.902-0.252c-4.394-1.226-9.201-1.848-14.29-1.848
		c-12.274,0-18.498,4.558-18.498,13.546c0,5.904,2.554,12.944,14.715,12.944h5.522c6.143,0,6.93,3.029,6.93,5.668
		c0,2.949-1.019,6.869-9.842,6.869c-5.059,0-9.826-0.785-14.175-2.33l-1.649-0.588v7.805l0.917,0.244
		c4.586,1.225,9.604,1.844,14.907,1.844c14.768,0,17.867-7.529,17.867-13.844C158.355,82.122,155.762,75.082,143.4,75.082z"/>
	<path fill="#FFFFFF" d="M169.084,62.475h-5.698v29.364c0,6.367,3.168,9.732,9.161,9.732h6.521v-6.975h-5.081
		c-1.338,0-2.577-0.385-2.577-3.178V74.554h7.658v-6.976h-8.783L169.084,62.475z"/>
	<path fill="#FFFFFF" d="M198.392,67.578c-10.627,0-16.243,5.878-16.243,17c0.043,11.096,5.659,16.963,16.243,16.963
		c10.632,0,16.25-5.869,16.25-16.969C214.642,73.457,209.024,67.578,198.392,67.578z M198.392,94.596
		c-3.524,0-8.217-1.049-8.217-10.141c0-6.758,2.613-9.902,8.217-9.902c5.61,0,8.222,3.144,8.222,9.902
		C206.614,93.548,201.922,94.596,198.392,94.596z"/>
	<path fill="#FFFFFF" d="M225.37,62.475h-5.695v29.364c0,6.367,3.168,9.732,9.162,9.732h6.521v-6.975h-5.081
		c-1.338,0-2.578-0.385-2.578-3.178V74.554h7.659v-6.976h-8.784L225.37,62.475z"/>
	<rect x="241.814" y="67.578" fill="#FFFFFF" width="8.023" height="33.993"/>
	<rect x="241.814" y="56.169" fill="#EDA624" width="8.023" height="7.728"/>
	<path fill="#FFFFFF" d="M272.306,67.578c-3.533,0-6.848,1.056-9.877,3.142l-0.771-3.142h-5.959v33.993h8.023V77.98
		c2.525-2.225,5.092-3.308,7.834-3.308c3.983,0,5.759,1.784,5.759,5.79v21.109h8.026V80.553
		C285.341,72.065,280.833,67.578,272.306,67.578z"/>
	<g>
		<rect x="291.312" y="56.169" fill="#FFFFFF" width="8.023" height="45.402"/>
		<polygon fill="#FFFFFF" points="320.362,67.609 311.045,67.609 298.063,83.889 298.101,87.495 312.563,101.571 322.547,101.571 
			306.675,85.204 		"/>
	</g>
	<path fill="#FFFFFF" d="M337.315,67.578c-3.346,0-6.815,0.522-10.313,1.55l-0.889,0.264v7.077l1.586-0.467
		c3.275-0.96,6.509-1.448,9.616-1.448c7.262,0,7.262,3.049,7.262,4.197v1.56c-2.325-0.281-4.669-0.424-6.99-0.424
		c-11.59,0-14.023,5.945-14.023,10.932c0,4.904,2.168,10.752,12.492,10.752c3.514,0,6.824-0.891,9.864-2.654l1.636,2.654h5.048
		v-22.97C352.602,73.573,349.948,67.578,337.315,67.578z M337.585,86.862c2.316,0,4.66,0.146,6.99,0.441v4.84
		c-2.347,1.629-5.205,2.453-8.521,2.453c-3.936,0-4.468-1.953-4.468-3.867C331.586,88.928,332.271,86.862,337.585,86.862z"/>
	<path fill="#FFFFFF" d="M379.754,55.87c-15.125,0-22.792,7.759-22.792,23.063c0,15.219,7.667,22.938,22.792,22.938
		c14.901,0,22.461-7.719,22.461-22.938C402.215,63.629,394.656,55.87,379.754,55.87z M379.754,94.895
		c-9.731,0-14.468-5.281-14.468-16.144c0-10.703,4.735-15.905,14.468-15.905c9.512,0,14.135,5.203,14.135,15.905
		C393.889,89.614,389.266,94.895,379.754,94.895z"/>
	<path fill="#FFFFFF" d="M421.303,82.659h5.522c4.629,0,6.689,1.75,6.689,5.668c0,1.625,0,6.568-10.47,6.568
		c-4.836,0-9.387-0.783-13.529-2.322l-1.668-0.621v7.822l0.902,0.25c4.396,1.227,9.204,1.848,14.295,1.848
		c12.273,0,18.494-4.557,18.494-13.545c0-5.904-2.553-12.942-14.715-12.942h-5.522c-6.144,0-6.931-3.029-6.931-5.671
		c0-2.947,1.021-6.868,9.842-6.868c5.061,0,9.831,0.783,14.177,2.331l1.653,0.587v-7.806l-0.918-0.244
		c-4.592-1.224-9.604-1.844-14.912-1.844c-14.766,0-17.865,7.53-17.865,13.844C406.349,75.618,408.942,82.659,421.303,82.659z"/>
	<path fill="#EDA624" d="M53.067,85.274h9.345c7.825,0,11.313,2.959,11.313,9.588c0,2.744,0,11.107-17.711,11.107
		c-8.176,0-15.871-1.322-22.88-3.93l-2.817-1.051v13.23l1.526,0.424c7.43,2.072,15.564,3.125,24.171,3.125
		c20.757,0,31.28-7.707,31.28-22.906c0-9.986-4.316-21.888-24.884-21.888h-9.345c-10.383,0-11.717-5.126-11.717-9.588
		c0-4.989,1.726-11.618,16.646-11.618c8.553,0,16.618,1.327,23.973,3.941l2.788,0.992V43.503l-1.549-0.414
		c-7.759-2.069-16.241-3.117-25.212-3.117c-24.974,0-30.216,12.732-30.216,23.414C27.78,73.37,32.165,85.274,53.067,85.274z"/>
	<g>
		<g>
			<path fill="#FFFFFF" d="M57.538,129.438c-27.886,0-50.569-22.688-50.569-50.569c0-27.885,22.685-50.567,50.569-50.567
				c27.88,0,50.564,22.684,50.564,50.567C108.104,106.751,85.418,129.438,57.538,129.438z M57.538,44.003
				c-19.227,0-34.867,15.641-34.867,34.866c0,19.227,15.642,34.864,34.867,34.864c19.224,0,34.862-15.639,34.862-34.864
				C92.401,59.645,76.762,44.003,57.538,44.003z"/>
		</g>
	</g>
	<path fill="#FFFFFF" stroke="#231F20" stroke-width="1.2802" d="M282.352,95.1"/>
</g>
</svg>
