<?xml version="1.0" encoding="utf-8"?>
<!-- Generator: Adobe Illustrator 15.0.0, SVG Export Plug-In . SVG Version: 6.00 Build 0)  -->
<!DOCTYPE svg PUBLIC "-//W3C//DTD SVG 1.1//EN" "http://www.w3.org/Graphics/SVG/1.1/DTD/svg11.dtd">
<svg version="1.1" id="svg3037" xmlns:svg="http://www.w3.org/2000/svg"
	 xmlns="http://www.w3.org/2000/svg" xmlns:xlink="http://www.w3.org/1999/xlink" x="0px" y="0px" width="448.508px"
	 height="157.74px" viewBox="0 0 448.508 157.74" enable-background="new 0 0 448.508 157.74" xml:space="preserve">
<g>
	<g>
		<path fill="#2E2C74" d="M143.399,75.083h-5.523c-4.628,0-6.69-1.75-6.69-5.668c0-1.625,0-6.57,10.474-6.57
			c4.834,0,9.385,0.782,13.527,2.324l1.666,0.62v-7.821l-0.903-0.251c-4.393-1.226-9.201-1.848-14.29-1.848
			c-12.274,0-18.498,4.557-18.498,13.546c0,5.904,2.554,12.944,14.715,12.944h5.523c6.142,0,6.929,3.028,6.929,5.668
			c0,2.949-1.018,6.869-9.841,6.869c-5.059,0-9.827-0.785-14.175-2.33l-1.65-0.588v7.805l0.917,0.244
			c4.586,1.225,9.604,1.844,14.908,1.844c14.767,0,17.867-7.529,17.867-13.844C158.354,82.122,155.761,75.083,143.399,75.083z"/>
		<path fill="#2E2C74" d="M169.083,62.475h-5.698V91.84c0,6.367,3.168,9.732,9.161,9.732h6.521v-6.975h-5.081
			c-1.338,0-2.578-0.384-2.578-3.177V74.554h7.659v-6.975h-8.784L169.083,62.475z"/>
		<path fill="#2E2C74" d="M198.391,67.579c-10.627,0-16.243,5.878-16.243,17c0.043,11.097,5.659,16.963,16.243,16.963
			c10.632,0,16.25-5.869,16.25-16.969C214.641,73.458,209.023,67.579,198.391,67.579z M198.391,94.597
			c-3.525,0-8.217-1.049-8.217-10.141c0-6.758,2.613-9.902,8.217-9.902c5.61,0,8.222,3.144,8.222,9.902
			C206.613,93.549,201.921,94.597,198.391,94.597z"/>
		<path fill="#2E2C74" d="M225.369,62.475h-5.695V91.84c0,6.367,3.168,9.732,9.162,9.732h6.521v-6.975h-5.081
			c-1.338,0-2.578-0.384-2.578-3.177V74.554h7.659v-6.975h-8.784L225.369,62.475z"/>
		<g>
			<rect x="241.813" y="67.579" fill="#2E2C74" width="8.023" height="33.993"/>
			<rect x="241.813" y="56.17" fill="#EDA624" width="8.023" height="7.727"/>
		</g>
		<path fill="#2E2C74" d="M272.305,67.579c-3.533,0-6.848,1.055-9.877,3.141l-0.771-3.141h-5.959v33.993h8.023V77.98
			c2.525-2.224,5.092-3.307,7.834-3.307c3.983,0,5.759,1.784,5.759,5.79v21.109h8.026V80.553
			C285.34,72.065,280.832,67.579,272.305,67.579z"/>
		<g>
			<rect x="291.311" y="56.17" fill="#2E2C74" width="8.023" height="45.402"/>
			<polygon fill="#2E2C74" points="320.361,67.609 311.044,67.609 298.062,83.889 298.1,87.495 312.562,101.572 322.546,101.572 
				306.674,85.205 			"/>
		</g>
		<path fill="#2E2C74" d="M337.314,67.579c-3.346,0-6.816,0.522-10.314,1.55l-0.888,0.263v7.077l1.586-0.466
			c3.275-0.96,6.508-1.449,9.616-1.449c7.261,0,7.261,3.049,7.261,4.198v1.559c-2.325-0.281-4.668-0.424-6.99-0.424
			c-11.59,0-14.023,5.946-14.023,10.933c0,4.904,2.168,10.752,12.492,10.752c3.514,0,6.824-0.891,9.864-2.654l1.636,2.654h5.048
			V78.601C352.601,73.574,349.948,67.579,337.314,67.579z M337.584,86.863c2.317,0,4.66,0.146,6.99,0.441v4.839
			c-2.346,1.629-5.205,2.454-8.521,2.454c-3.936,0-4.468-1.954-4.468-3.867C331.585,88.929,332.27,86.863,337.584,86.863z"/>
		<path fill="#2E2C74" d="M379.753,55.871c-15.125,0-22.792,7.759-22.792,23.063c0,15.22,7.667,22.939,22.792,22.939
			c14.902,0,22.461-7.719,22.461-22.939C402.214,63.63,394.656,55.871,379.753,55.871z M379.753,94.896
			c-9.731,0-14.468-5.281-14.468-16.144c0-10.703,4.736-15.906,14.468-15.906c9.512,0,14.135,5.204,14.135,15.906
			C393.888,89.615,389.265,94.896,379.753,94.896z"/>
		<path fill="#2E2C74" d="M421.302,82.66h5.523c4.629,0,6.689,1.75,6.689,5.668c0,1.625,0,6.568-10.47,6.568
			c-4.836,0-9.387-0.783-13.529-2.322l-1.668-0.622v7.823l0.902,0.25c4.396,1.227,9.204,1.848,14.295,1.848
			c12.274,0,18.495-4.557,18.495-13.545c0-5.904-2.553-12.943-14.715-12.943h-5.523c-6.144,0-6.931-3.029-6.931-5.67
			c0-2.948,1.021-6.869,9.842-6.869c5.061,0,9.831,0.784,14.177,2.331l1.653,0.587v-7.805l-0.918-0.244
			c-4.591-1.224-9.604-1.844-14.912-1.844c-14.766,0-17.865,7.53-17.865,13.844C406.348,75.619,408.941,82.66,421.302,82.66z"/>
	</g>
	<g>
		<path fill="#EDA624" d="M53.066,85.275h9.344c7.826,0,11.314,2.959,11.314,9.588c0,2.744,0,11.106-17.711,11.106
			c-8.176,0-15.871-1.321-22.88-3.929l-2.817-1.05v13.229l1.526,0.424c7.43,2.074,15.564,3.126,24.171,3.126
			c20.757,0,31.28-7.708,31.28-22.906c0-9.986-4.316-21.889-24.884-21.889h-9.344c-10.383,0-11.717-5.126-11.717-9.588
			c0-4.989,1.725-11.618,16.645-11.618c8.553,0,16.619,1.327,23.973,3.942l2.788,0.992V43.504l-1.549-0.414
			c-7.758-2.07-16.241-3.118-25.212-3.118c-24.973,0-30.215,12.733-30.215,23.414C27.779,73.371,32.164,85.275,53.066,85.275z"/>
		<g>
			<g>
				<path fill="#2E2C74" d="M57.537,129.438c-27.885,0-50.569-22.687-50.569-50.568c0-27.885,22.685-50.568,50.569-50.568
					c27.88,0,50.565,22.684,50.565,50.568C108.103,106.752,85.417,129.438,57.537,129.438z M57.537,44.004
					c-19.226,0-34.867,15.64-34.867,34.866s15.642,34.863,34.867,34.863c19.224,0,34.863-15.638,34.863-34.863
					S76.761,44.004,57.537,44.004z"/>
			</g>
		</g>
	</g>
	<path fill="none" stroke="#231F20" stroke-width="1.2802" d="M282.351,95.101"/>
</g>
</svg>
