<?xml version="1.0" encoding="utf-8"?>
<!-- Generator: Adobe Illustrator 15.0.0, SVG Export Plug-In . SVG Version: 6.00 Build 0)  -->
<!DOCTYPE svg PUBLIC "-//W3C//DTD SVG 1.1//EN" "http://www.w3.org/Graphics/SVG/1.1/DTD/svg11.dtd">
<svg version="1.1"
	 id="svg2426" xmlns:rdf="http://www.w3.org/1999/02/22-rdf-syntax-ns#" xmlns:sodipodi="http://sodipodi.sourceforge.net/DTD/sodipodi-0.dtd" xmlns:inkscape="http://www.inkscape.org/namespaces/inkscape" xmlns:cc="http://creativecommons.org/ns#" xmlns:svg="http://www.w3.org/2000/svg" xmlns:dc="http://purl.org/dc/elements/1.1/" inkscape:version="0.47 r22583" sodipodi:docname="xfce4_xicon1.svg" inkscape:output_extension="org.inkscape.output.svg.inkscape" sodipodi:version="0.32"
	 xmlns="http://www.w3.org/2000/svg" xmlns:xlink="http://www.w3.org/1999/xlink" x="0px" y="0px" width="48px" height="48px"
	 viewBox="0 0 48 48" enable-background="new 0 0 48 48" xml:space="preserve">
<defs>
	
	
		<inkscape:perspective  id="perspective2434" sodipodi:type="inkscape:persp3d" inkscape:vp_z="1 : 0.5 : 1" inkscape:vp_x="0 : 0.5 : 1" inkscape:vp_y="0 : 1000 : 0" inkscape:persp3d-origin="0.5 : 0.33333333 : 1">
		</inkscape:perspective>
	
		<inkscape:perspective  id="perspective2986" sodipodi:type="inkscape:persp3d" inkscape:vp_z="1 : 0.5 : 1" inkscape:vp_x="0 : 0.5 : 1" inkscape:vp_y="0 : 1000 : 0" inkscape:persp3d-origin="0.5 : 0.33333333 : 1">
		</inkscape:perspective>
	
		<inkscape:perspective  id="perspective3026" sodipodi:type="inkscape:persp3d" inkscape:vp_z="1 : 0.5 : 1" inkscape:vp_x="0 : 0.5 : 1" inkscape:vp_y="0 : 1000 : 0" inkscape:persp3d-origin="0.5 : 0.33333333 : 1">
		</inkscape:perspective>
</defs>
<sodipodi:namedview  id="namedview2428" gridtolerance="10" guidetolerance="10" inkscape:cy="28.197876" bordercolor="#666666" borderopacity="1" pagecolor="#ffffff" showgrid="false" objecttolerance="10" inkscape:cx="38.944435" inkscape:zoom="7.6282828" inkscape:window-x="0" inkscape:window-y="25" inkscape:current-layer="g2436" inkscape:window-height="724" inkscape:pageshadow="2" inkscape:window-width="1274" inkscape:pageopacity="0" inkscape:window-maximized="0">
	</sodipodi:namedview>
<g>
	<path fill="#EDA624" d="M22.394,26.302h3.357c2.813,0,4.067,1.065,4.067,3.447c0,0.985,0,3.993-6.366,3.993
		c-2.939,0-5.705-0.475-8.224-1.413l-1.014-0.377v4.755l0.549,0.152c2.671,0.746,5.595,1.123,8.688,1.123
		c7.462,0,11.244-2.769,11.244-8.233c0-3.589-1.552-7.869-8.945-7.869h-3.357c-3.733,0-4.213-1.843-4.213-3.446
		c0-1.793,0.62-4.177,5.982-4.177c3.076,0,5.976,0.477,8.618,1.418l1.003,0.356v-4.745l-0.558-0.148
		c-2.788-0.744-5.838-1.12-9.063-1.12c-8.977,0-10.86,4.576-10.86,8.416C13.303,22.023,14.879,26.302,22.394,26.302z"/>
	<g>
		<g>
			<path fill="#2E2C74" d="M24,42.179c-10.023,0-18.178-8.155-18.178-18.18C5.822,13.976,13.977,5.821,24,5.821
				c10.022,0,18.178,8.154,18.178,18.178C42.178,34.023,34.022,42.179,24,42.179z M24,11.467c-6.91,0-12.533,5.622-12.533,12.532
				c0,6.912,5.623,12.533,12.533,12.533s12.533-5.621,12.533-12.533C36.533,17.089,30.91,11.467,24,11.467z"/>
		</g>
	</g>
</g>
</svg>
